# Blender v2.79 (sub 0) OBJ File: 'floor_navimesh1.blend'
# www.blender.org
mtllib floor_navimesh1.mtl
o Plane_Plane.001
v -100.000000 0.000000 100.000000
v 100.000000 0.000000 100.000000
v -100.000000 0.000000 -100.000000
v 100.000000 0.000000 -100.000000
v -100.000000 0.000000 0.000000
v 0.000000 0.000000 100.000000
v 100.000000 0.000000 0.000000
v 0.000000 0.000000 -100.000000
v 0.000000 0.000000 0.000000
v -100.000000 0.000000 50.000000
v 50.000000 0.000000 100.000000
v 100.000000 0.000000 -50.000000
v -50.000000 0.000000 -100.000000
v -100.000000 0.000000 -50.000000
v -50.000000 0.000000 100.000000
v 100.000000 0.000000 50.000000
v 50.000000 0.000000 -100.000000
v 0.000000 0.000000 -50.000000
v 0.000000 0.000000 50.000000
v -50.000000 0.000000 0.000000
v 50.000000 0.000000 0.000000
v 50.000000 0.000000 50.000000
v -50.000000 0.000000 50.000000
v -50.000000 0.000000 -50.000000
v 50.000000 0.000000 -50.000000
v -100.000000 0.000000 75.000000
v 75.000000 0.000000 100.000000
v 100.000000 0.000000 -75.000000
v -75.000000 0.000000 -100.000000
v -100.000000 0.000000 -25.000000
v -25.000000 0.000000 100.000000
v 100.000000 0.000000 25.000000
v 25.000000 0.000000 -100.000000
v 0.000000 0.000000 -75.000000
v 0.000000 0.000000 25.000000
v -75.000000 0.000000 0.000000
v 25.000000 0.000000 0.000000
v -100.000000 0.000000 25.000000
v 25.000000 0.000000 100.000000
v 100.000000 0.000000 -25.000000
v -25.000000 0.000000 -100.000000
v -100.000000 0.000000 -75.000000
v -75.000000 0.000000 100.000000
v 100.000000 0.000000 75.000000
v 75.000000 0.000000 -100.000000
v 0.000000 0.000000 -25.000000
v 0.000000 0.000000 75.000000
v -25.000000 0.000000 0.000000
v 75.000000 0.000000 0.000000
v 50.000000 0.000000 25.000000
v 50.000000 0.000000 75.000000
v 25.000000 0.000000 50.000000
v 75.000000 0.000000 50.000000
v -50.000000 0.000000 25.000000
v -50.000000 0.000000 75.000000
v -75.000000 0.000000 50.000000
v -25.000000 0.000000 50.000000
v -50.000000 0.000000 -75.000000
v -50.000000 0.000000 -25.000000
v -75.000000 0.000000 -50.000000
v -25.000000 0.000000 -50.000000
v 50.000000 0.000000 -75.000000
v 50.000000 0.000000 -25.000000
v 25.000000 0.000000 -50.000000
v 75.000000 0.000000 -50.000000
v 75.000000 0.000000 -25.000000
v 25.000000 0.000000 -25.000000
v 25.000000 0.000000 -75.000000
v -25.000000 0.000000 -25.000000
v -75.000000 0.000000 -25.000000
v -75.000000 0.000000 -75.000000
v -25.000000 0.000000 75.000000
v -75.000000 0.000000 75.000000
v -75.000000 0.000000 25.000000
v 75.000000 0.000000 75.000000
v 25.000000 0.000000 75.000000
v 25.000000 0.000000 25.000000
v 75.000000 0.000000 25.000000
v -25.000000 0.000000 25.000000
v -25.000000 0.000000 -75.000000
v 75.000000 0.000000 -75.000000
v 46.236019 0.000000 -35.833221
v 39.999996 0.000000 -47.499996
v 38.536831 0.000000 -47.355888
v 37.129883 0.000000 -46.929096
v 33.070900 0.000000 -37.129879
v 33.763973 0.000000 -35.833225
v 32.644108 0.000000 -38.536827
v 34.696693 0.000000 -34.696701
v 38.536816 0.000000 -32.644112
v 39.999996 0.000000 -32.500000
v 37.129871 0.000000 -33.070904
v 47.355888 0.000000 -41.463177
v 44.166775 0.000000 -46.236019
v 47.499996 0.000000 -39.999996
v 46.929092 0.000000 -42.870121
v 41.463173 0.000000 -32.644108
v 34.696705 0.000000 -45.303307
v 35.833229 0.000000 -46.236027
v 33.763981 0.000000 -44.166782
v 47.355888 0.000000 -38.536819
v 44.166775 0.000000 -33.763973
v 45.303299 0.000000 -34.696697
v 46.929092 0.000000 -37.129871
v 32.500000 0.000000 -40.000004
v 35.833218 0.000000 -33.763977
v 32.644112 0.000000 -41.463181
v 45.303299 0.000000 -45.303299
v 42.870121 0.000000 -33.070900
v 46.236019 0.000000 -44.166775
v 33.070904 0.000000 -42.870132
v 42.870121 0.000000 -46.929092
v 41.463177 0.000000 -47.355888
v 46.236019 0.000000 44.166775
v 39.999996 0.000000 32.500000
v 38.536831 0.000000 32.644104
v 37.129883 0.000000 33.070900
v 33.070900 0.000000 42.870117
v 33.763973 0.000000 44.166771
v 32.644108 0.000000 41.463169
v 34.696693 0.000000 45.303295
v 38.536816 0.000000 47.355885
v 39.999996 0.000000 47.499996
v 37.129871 0.000000 46.929092
v 47.355888 0.000000 38.536819
v 44.166775 0.000000 33.763973
v 47.499996 0.000000 39.999996
v 46.929092 0.000000 37.129871
v 41.463173 0.000000 47.355888
v 34.696705 0.000000 34.696690
v 35.833229 0.000000 33.763969
v 33.763981 0.000000 35.833214
v 47.355888 0.000000 41.463177
v 44.166775 0.000000 46.236019
v 45.303299 0.000000 45.303299
v 46.929092 0.000000 42.870121
v 32.500000 0.000000 39.999992
v 35.833218 0.000000 46.236019
v 32.644112 0.000000 38.536816
v 45.303299 0.000000 34.696697
v 42.870121 0.000000 46.929092
v 46.236019 0.000000 35.833221
v 33.070904 0.000000 37.129864
v 42.870121 0.000000 33.070900
v 41.463177 0.000000 32.644108
v -33.763973 0.000000 -35.833221
v -39.999996 0.000000 -47.499996
v -41.463165 0.000000 -47.355888
v -42.870113 0.000000 -46.929096
v -46.929096 0.000000 -37.129879
v -46.236023 0.000000 -35.833225
v -47.355888 0.000000 -38.536827
v -45.303303 0.000000 -34.696701
v -41.463177 0.000000 -32.644112
v -40.000000 0.000000 -32.500000
v -42.870125 0.000000 -33.070904
v -32.644108 0.000000 -41.463177
v -35.833221 0.000000 -46.236019
v -32.500000 0.000000 -39.999996
v -33.070900 0.000000 -42.870121
v -38.536823 0.000000 -32.644108
v -45.303291 0.000000 -45.303307
v -44.166763 0.000000 -46.236027
v -46.236015 0.000000 -44.166782
v -32.644108 0.000000 -38.536819
v -35.833221 0.000000 -33.763973
v -34.696697 0.000000 -34.696697
v -33.070900 0.000000 -37.129871
v -47.499996 0.000000 -40.000004
v -44.166775 0.000000 -33.763977
v -47.355885 0.000000 -41.463181
v -34.696697 0.000000 -45.303299
v -37.129871 0.000000 -33.070900
v -33.763973 0.000000 -44.166775
v -46.929092 0.000000 -42.870132
v -37.129871 0.000000 -46.929092
v -38.536819 0.000000 -47.355888
v -33.763973 0.000000 44.166775
v -39.999996 0.000000 32.500000
v -41.463165 0.000000 32.644104
v -42.870113 0.000000 33.070900
v -46.929096 0.000000 42.870117
v -46.236023 0.000000 44.166771
v -47.355888 0.000000 41.463169
v -45.303303 0.000000 45.303295
v -41.463177 0.000000 47.355885
v -40.000000 0.000000 47.499996
v -42.870125 0.000000 46.929092
v -32.644108 0.000000 38.536819
v -35.833221 0.000000 33.763973
v -32.500000 0.000000 39.999996
v -33.070900 0.000000 37.129871
v -38.536823 0.000000 47.355888
v -45.303291 0.000000 34.696690
v -44.166763 0.000000 33.763969
v -46.236015 0.000000 35.833214
v -32.644108 0.000000 41.463177
v -35.833221 0.000000 46.236019
v -34.696697 0.000000 45.303299
v -33.070900 0.000000 42.870121
v -47.499996 0.000000 39.999992
v -44.166775 0.000000 46.236019
v -47.355885 0.000000 38.536816
v -34.696697 0.000000 34.696697
v -37.129871 0.000000 46.929092
v -33.763973 0.000000 35.833221
v -46.929092 0.000000 37.129864
v -37.129871 0.000000 33.070900
v -38.536819 0.000000 32.644108
vn 0.0000 1.0000 0.0000
usemtl None
s off
f 81//1 28//1 4//1 45//1
f 80//1 34//1 8//1 41//1
f 79//1 35//1 9//1 48//1
f 78//1 32//1 7//1 49//1
f 77//1 50//1 21//1 37//1
f 76//1 51//1 22//1 52//1
f 75//1 44//1 16//1 53//1
f 74//1 54//1 20//1 36//1
f 73//1 55//1 23//1 56//1
f 72//1 47//1 19//1 57//1
f 71//1 58//1 13//1 29//1
f 70//1 59//1 24//1 60//1
f 69//1 46//1 18//1 61//1
f 68//1 62//1 17//1 33//1
f 67//1 63//1 25//1 95//1 101//1 104//1 82//1 103//1 102//1 109//1 97//1 91//1 90//1 92//1 106//1 89//1 87//1 86//1 88//1 105//1 64//1
f 66//1 40//1 12//1 65//1
f 63//1 66//1 65//1 25//1
f 21//1 49//1 66//1 63//1
f 49//1 7//1 40//1 66//1
f 46//1 67//1 64//1 18//1
f 9//1 37//1 67//1 46//1
f 37//1 21//1 63//1 67//1
f 34//1 68//1 33//1 8//1
f 18//1 64//1 68//1 34//1
f 64//1 25//1 62//1 68//1
f 59//1 69//1 61//1 159//1 165//1 168//1 146//1 167//1 166//1 173//1 161//1 155//1 154//1 156//1 170//1 153//1 151//1 150//1 152//1 169//1 24//1
f 20//1 48//1 69//1 59//1
f 48//1 9//1 46//1 69//1
f 30//1 70//1 60//1 14//1
f 5//1 36//1 70//1 30//1
f 36//1 20//1 59//1 70//1
f 42//1 71//1 29//1 3//1
f 14//1 60//1 71//1 42//1
f 60//1 24//1 58//1 71//1
f 55//1 72//1 57//1 23//1
f 15//1 31//1 72//1 55//1
f 31//1 6//1 47//1 72//1
f 26//1 73//1 56//1 10//1
f 1//1 43//1 73//1 26//1
f 43//1 15//1 55//1 73//1
f 38//1 74//1 36//1 5//1
f 10//1 56//1 74//1 38//1
f 56//1 23//1 54//1 74//1
f 51//1 75//1 53//1 22//1
f 11//1 27//1 75//1 51//1
f 27//1 2//1 44//1 75//1
f 47//1 76//1 52//1 19//1
f 6//1 39//1 76//1 47//1
f 39//1 11//1 51//1 76//1
f 35//1 77//1 37//1 9//1
f 19//1 52//1 77//1 35//1
f 52//1 137//1 139//1 143//1 132//1 130//1 131//1 117//1 116//1 115//1 145//1 144//1 126//1 140//1 142//1 128//1 125//1 127//1 22//1 50//1 77//1
f 50//1 78//1 49//1 21//1
f 22//1 53//1 78//1 50//1
f 53//1 16//1 32//1 78//1
f 54//1 79//1 48//1 20//1
f 23//1 201//1 203//1 207//1 196//1 194//1 195//1 181//1 180//1 179//1 209//1 208//1 190//1 204//1 206//1 192//1 189//1 191//1 57//1 79//1 54//1
f 57//1 19//1 35//1 79//1
f 58//1 80//1 41//1 13//1
f 24//1 61//1 80//1 58//1
f 61//1 18//1 34//1 80//1
f 62//1 81//1 45//1 17//1
f 25//1 65//1 81//1 62//1
f 65//1 12//1 28//1 81//1
f 64//1 105//1 107//1 111//1 100//1 98//1 99//1 85//1 84//1 83//1 113//1 112//1 94//1 108//1 110//1 96//1 93//1 95//1 25//1
f 22//1 127//1 133//1 136//1 114//1 135//1 134//1 141//1 129//1 123//1 122//1 124//1 138//1 121//1 119//1 118//1 120//1 137//1 52//1
f 24//1 169//1 171//1 175//1 164//1 162//1 163//1 149//1 148//1 147//1 177//1 176//1 158//1 172//1 174//1 160//1 157//1 159//1 61//1
f 57//1 191//1 197//1 200//1 178//1 199//1 198//1 205//1 193//1 187//1 186//1 188//1 202//1 185//1 183//1 182//1 184//1 201//1 23//1
